<?xml version="1.0" encoding="UTF-8"?>
<!DOCTYPE svg PUBLIC "-//W3C//DTD SVG 1.1//EN" "http://www.w3.org/Graphics/SVG/1.1/DTD/svg11.dtd">
<svg xmlns="http://www.w3.org/2000/svg" version="1.1" width="739px" height="226px" style="shape-rendering:geometricPrecision; text-rendering:geometricPrecision; image-rendering:optimizeQuality; fill-rule:evenodd; clip-rule:evenodd" xmlns:xlink="http://www.w3.org/1999/xlink">
<g><path style="opacity:1" fill="#fdfdfd" d="M -0.5,-0.5 C 245.833,-0.5 492.167,-0.5 738.5,-0.5C 738.5,74.8333 738.5,150.167 738.5,225.5C 492.167,225.5 245.833,225.5 -0.5,225.5C -0.5,150.167 -0.5,74.8333 -0.5,-0.5 Z"/></g>
<g><path style="opacity:1" fill="#97d1e8" d="M 136.5,8.5 C 146.833,8.5 157.167,8.5 167.5,8.5C 167.5,18.5 167.5,28.5 167.5,38.5C 157.167,38.5 146.833,38.5 136.5,38.5C 136.5,28.5 136.5,18.5 136.5,8.5 Z"/></g>
<g><path style="opacity:1" fill="#ceebfa" d="M 197.5,8.5 C 203.5,8.5 209.5,8.5 215.5,8.5C 215.5,14.5 215.5,20.5 215.5,26.5C 209.5,26.5 203.5,26.5 197.5,26.5C 197.5,20.5 197.5,14.5 197.5,8.5 Z"/></g>
<g><path style="opacity:1" fill="#cbeaf9" d="M 80.5,79.5 C 72.6942,78.2992 65.0275,78.9658 57.5,81.5C 42.5,81.5 27.5,81.5 12.5,81.5C 12.5,59.8333 12.5,38.1667 12.5,16.5C 34.1667,16.5 55.8333,16.5 77.5,16.5C 77.5,37.1667 77.5,57.8333 77.5,78.5C 78.791,78.2627 79.791,78.596 80.5,79.5 Z"/></g>
<g><path style="opacity:1" fill="#8fc9e0" d="M 166.5,91.5 C 160.359,103.113 154.192,114.78 148,126.5C 139.246,111.328 130.746,95.9943 122.5,80.5C 118.205,79.3391 113.871,79.1725 109.5,80C 117.307,94.4478 124.973,108.948 132.5,123.5C 129.167,123.5 125.833,123.5 122.5,123.5C 122.5,131.167 122.5,138.833 122.5,146.5C 122.784,148.415 122.451,150.081 121.5,151.5C 121.666,141.828 121.5,132.161 121,122.5C 117.473,115.447 113.973,108.447 110.5,101.5C 110.013,100.527 109.513,99.5266 109,98.5C 108.5,106.827 108.334,115.16 108.5,123.5C 105.833,123.5 103.167,123.5 100.5,123.5C 99.8333,123.5 99.5,123.167 99.5,122.5C 100.49,116.355 100.823,110.022 100.5,103.5C 101.725,102.848 102.392,101.681 102.5,100C 102.486,98.6153 102.152,97.4486 101.5,96.5C 100.833,94.8333 100.167,93.1667 99.5,91.5C 100.495,80.6794 100.828,69.6794 100.5,58.5C 122.167,58.5 143.833,58.5 165.5,58.5C 165.172,69.6794 165.505,80.6794 166.5,91.5 Z"/></g>
<g><path style="opacity:1" fill="#9dd4ea" d="M 194.5,65.5 C 198.167,65.5 201.833,65.5 205.5,65.5C 205.5,69.1667 205.5,72.8333 205.5,76.5C 201.833,76.5 198.167,76.5 194.5,76.5C 194.5,72.8333 194.5,69.1667 194.5,65.5 Z"/></g>
<g><path style="opacity:1" fill="#0766ed" d="M 80.5,79.5 C 88.6603,80.7396 94.9936,84.7396 99.5,91.5C 100.167,93.1667 100.833,94.8333 101.5,96.5C 101.5,98.5 101.5,100.5 101.5,102.5C 97.1667,102.5 92.8333,102.5 88.5,102.5C 88.4323,95.7666 85.099,91.7666 78.5,90.5C 73.5936,89.1517 68.5936,89.3184 63.5,91C 55.8868,95.8091 55.8868,100.809 63.5,106C 68.0192,108.007 72.6859,109.507 77.5,110.5C 86.2585,112.071 93.5918,116.071 99.5,122.5C 99.5,123.167 99.8333,123.5 100.5,123.5C 103.415,131.595 102.081,138.928 96.5,145.5C 90.8627,149.501 84.5294,151.834 77.5,152.5C 67.5871,153.246 58.5871,150.913 50.5,145.5C 47.4122,141.322 45.4122,136.655 44.5,131.5C 44.5,130.5 44.5,129.5 44.5,128.5C 48.8333,128.5 53.1667,128.5 57.5,128.5C 57.2627,129.791 57.596,130.791 58.5,131.5C 58.7241,135.562 60.7241,138.395 64.5,140C 69.9275,141.693 75.2608,141.86 80.5,140.5C 85.5683,139.933 88.5683,137.1 89.5,132C 87.8251,125.824 83.8251,122.324 77.5,121.5C 68.9373,119.252 60.604,116.085 52.5,112C 44.7013,104.82 43.5346,96.6533 49,87.5C 51.6371,85.109 54.4704,83.109 57.5,81.5C 65.0275,78.9658 72.6942,78.2992 80.5,79.5 Z"/></g>
<g><path style="opacity:1" fill="#040404" d="M 448.5,102.5 C 444.03,103.486 439.363,103.819 434.5,103.5C 430.362,94.7206 423.362,90.3873 413.5,90.5C 395.221,93.3643 387.388,104.031 390,122.5C 394.4,137.125 404.234,143.292 419.5,141C 428.787,138.548 434.454,132.715 436.5,123.5C 428.167,123.5 419.833,123.5 411.5,123.5C 411.5,120.167 411.5,116.833 411.5,113.5C 424.167,113.5 436.833,113.5 449.5,113.5C 449.5,126.167 449.5,138.833 449.5,151.5C 445.167,151.5 440.833,151.5 436.5,151.5C 436.665,148.482 436.498,145.482 436,142.5C 429.359,149.938 421.026,153.272 411,152.5C 396.985,152.664 386.652,146.664 380,134.5C 374.755,120.493 375.422,106.826 382,93.5C 395.187,78.5602 411.354,74.3936 430.5,81C 440.688,84.6859 446.688,91.8526 448.5,102.5 Z"/></g>
<g><path style="opacity:1" fill="#0766ed" d="M 166.5,91.5 C 168.742,88.0205 170.742,84.3538 172.5,80.5C 177.12,79.5067 181.786,79.1734 186.5,79.5C 186.5,103.5 186.5,127.5 186.5,151.5C 182.167,151.5 177.833,151.5 173.5,151.5C 173.833,136.152 173.499,120.819 172.5,105.5C 171.893,105.624 171.56,105.957 171.5,106.5C 169.246,110.007 167.246,113.673 165.5,117.5C 163.992,119.181 162.992,121.181 162.5,123.5C 158.774,129.273 155.274,135.273 152,141.5C 148.667,142.833 145.333,142.833 142,141.5C 139.075,135.315 135.909,129.315 132.5,123.5C 124.973,108.948 117.307,94.4478 109.5,80C 113.871,79.1725 118.205,79.3391 122.5,80.5C 130.746,95.9943 139.246,111.328 148,126.5C 154.192,114.78 160.359,103.113 166.5,91.5 Z"/></g>
<g><path style="opacity:1" fill="#050505" d="M 207.5,147.5 C 206.751,148.531 206.085,149.698 205.5,151C 200.5,151.667 195.5,151.667 190.5,151C 191.267,149.53 191.933,148.03 192.5,146.5C 200.425,124.561 208.258,102.561 216,80.5C 222.111,79.1913 228.278,79.1913 234.5,80.5C 243.74,104.057 253.073,127.557 262.5,151C 256.916,151.806 251.416,151.639 246,150.5C 239.459,131.709 232.626,113.042 225.5,94.5C 218.709,111.871 212.709,129.538 207.5,147.5 Z"/></g>
<g><path style="opacity:1" fill="#0766ed" d="M 319.5,92.5 C 319.263,93.791 319.596,94.791 320.5,95.5C 322.249,107.655 318.249,117.322 308.5,124.5C 313.635,133.465 318.968,142.298 324.5,151C 319.467,151.829 314.467,151.662 309.5,150.5C 305.138,142.438 300.805,134.438 296.5,126.5C 291.025,125.511 285.358,125.178 279.5,125.5C 279.5,134.167 279.5,142.833 279.5,151.5C 275.167,151.5 270.833,151.5 266.5,151.5C 266.5,139.5 266.5,127.5 266.5,115.5C 276.681,115.827 286.681,115.494 296.5,114.5C 305.909,113.389 309.743,108.055 308,98.5C 306.878,96.3762 305.378,94.5429 303.5,93C 291.242,91.5606 278.909,91.0606 266.5,91.5C 266.5,87.5 266.5,83.5 266.5,79.5C 279.546,79.1225 292.546,79.6225 305.5,81C 311.864,82.8726 316.531,86.7059 319.5,92.5 Z"/></g>
<g><path style="opacity:1" fill="#0766ee" d="M 321.5,79.5 C 340.5,79.5 359.5,79.5 378.5,79.5C 378.5,83.8333 378.5,88.1667 378.5,92.5C 359.5,92.5 340.5,92.5 321.5,92.5C 321.5,88.1667 321.5,83.8333 321.5,79.5 Z"/></g>
<g><path style="opacity:1" fill="#030303" d="M 458.5,79.5 C 469.505,79.3335 480.505,79.5002 491.5,80C 511.335,83.8243 517.502,95.3243 510,114.5C 507.5,118.333 504.333,121.5 500.5,124C 505.708,132.916 511.041,141.75 516.5,150.5C 511.533,151.662 506.533,151.829 501.5,151C 496.912,143.16 492.579,135.16 488.5,127C 482.843,126.501 477.176,126.334 471.5,126.5C 471.5,134.833 471.5,143.167 471.5,151.5C 467.167,151.5 462.833,151.5 458.5,151.5C 458.5,139.5 458.5,127.5 458.5,115.5C 468.348,115.827 478.014,115.494 487.5,114.5C 498.742,112.695 502.242,106.362 498,95.5C 495.765,93.7976 493.265,92.7976 490.5,92.5C 480.013,91.5056 469.346,91.1722 458.5,91.5C 458.5,87.5 458.5,83.5 458.5,79.5 Z"/></g>
<g><path style="opacity:1" fill="#0766ed" d="M 562.5,79.5 C 587.065,86.287 596.565,102.287 591,127.5C 583.616,146.285 569.782,154.452 549.5,152C 531.467,149.117 521.134,138.617 518.5,120.5C 518.5,119.167 518.5,117.833 518.5,116.5C 522.833,116.5 527.167,116.5 531.5,116.5C 531.726,131.893 539.56,139.893 555,140.5C 574.855,137.616 582.522,126.283 578,106.5C 577.576,103.975 576.41,101.975 574.5,100.5C 574.573,98.9731 573.906,97.9731 572.5,97.5C 567.592,93.5297 561.926,91.5297 555.5,91.5C 555.5,87.5 555.5,83.5 555.5,79.5C 557.833,79.5 560.167,79.5 562.5,79.5 Z"/></g>
<g><path style="opacity:1" fill="#020202" d="M 599.5,79.5 C 603.833,79.5 608.167,79.5 612.5,79.5C 612.333,95.5035 612.5,111.503 613,127.5C 615.68,135.266 621.18,139.266 629.5,139.5C 629.5,143.833 629.5,148.167 629.5,152.5C 616.258,153.604 606.758,148.271 601,136.5C 599.551,117.555 599.051,98.5549 599.5,79.5 Z"/></g>
<g><path style="opacity:1" fill="#000000" d="M 645.5,79.5 C 650.167,79.5 654.833,79.5 659.5,79.5C 659.5,94.8333 659.5,110.167 659.5,125.5C 654.833,125.5 650.167,125.5 645.5,125.5C 645.5,110.167 645.5,94.8333 645.5,79.5 Z"/></g>
<g><path style="opacity:1" fill="#060606" d="M 668.5,79.5 C 680.171,79.3335 691.838,79.5001 703.5,80C 713.887,80.939 720.387,86.439 723,96.5C 725.661,112.703 719.161,122.869 703.5,127C 696.508,127.5 689.508,127.666 682.5,127.5C 682.5,135.5 682.5,143.5 682.5,151.5C 677.833,151.5 673.167,151.5 668.5,151.5C 668.5,139.5 668.5,127.5 668.5,115.5C 679.896,115.909 691.23,115.409 702.5,114C 706.722,111.391 708.722,107.558 708.5,102.5C 708.793,97.9465 706.793,94.7798 702.5,93C 691.23,91.5907 679.896,91.0907 668.5,91.5C 668.5,87.5 668.5,83.5 668.5,79.5 Z"/></g>
<g><path style="opacity:1" fill="#90cce3" d="M 12.5,81.5 C 27.5,81.5 42.5,81.5 57.5,81.5C 54.4704,83.109 51.6371,85.109 49,87.5C 43.5346,96.6533 44.7013,104.82 52.5,112C 60.604,116.085 68.9373,119.252 77.5,121.5C 77.5,127.833 77.5,134.167 77.5,140.5C 78.5,140.5 79.5,140.5 80.5,140.5C 75.2608,141.86 69.9275,141.693 64.5,140C 60.7241,138.395 58.7241,135.562 58.5,131.5C 58.5,130.167 58.5,128.833 58.5,127.5C 53.5,127.5 48.5,127.5 43.5,127.5C 43.2322,129.099 43.5655,130.432 44.5,131.5C 45.4122,136.655 47.4122,141.322 50.5,145.5C 38.011,146.495 25.3443,146.829 12.5,146.5C 12.5,124.833 12.5,103.167 12.5,81.5 Z"/></g>
<g><path style="opacity:1" fill="#777777" d="M 562.5,79.5 C 560.167,79.5 557.833,79.5 555.5,79.5C 555.5,83.5 555.5,87.5 555.5,91.5C 554.515,87.3656 554.182,83.0323 554.5,78.5C 557.385,78.1936 560.052,78.5269 562.5,79.5 Z"/></g>
<g><path style="opacity:1" fill="#89c2d8" d="M 78.5,90.5 C 77.5093,96.979 77.176,103.646 77.5,110.5C 72.6859,109.507 68.0192,108.007 63.5,106C 55.8868,100.809 55.8868,95.8091 63.5,91C 68.5936,89.3184 73.5936,89.1517 78.5,90.5 Z"/></g>
<g><path style="opacity:1" fill="#f0f2f2" d="M 78.5,90.5 C 85.099,91.7666 88.4323,95.7666 88.5,102.5C 92.2984,103.483 96.2984,103.817 100.5,103.5C 100.823,110.022 100.49,116.355 99.5,122.5C 93.5918,116.071 86.2585,112.071 77.5,110.5C 77.176,103.646 77.5093,96.979 78.5,90.5 Z"/></g>
<g><path style="opacity:1" fill="#acacac" d="M 458.5,79.5 C 458.5,83.5 458.5,87.5 458.5,91.5C 469.346,91.1722 480.013,91.5056 490.5,92.5C 479.5,92.5 468.5,92.5 457.5,92.5C 457.182,87.9677 457.515,83.6344 458.5,79.5 Z"/></g>
<g><path style="opacity:1" fill="#878787" d="M 321.5,79.5 C 321.5,83.8333 321.5,88.1667 321.5,92.5C 340.5,92.5 359.5,92.5 378.5,92.5C 358.978,92.8372 339.645,93.8372 320.5,95.5C 319.596,94.791 319.263,93.791 319.5,92.5C 320.167,88.1667 320.833,83.8333 321.5,79.5 Z"/></g>
<g><path style="opacity:1" fill="#6b6b6b" d="M 572.5,97.5 C 573.906,97.9731 574.573,98.9731 574.5,100.5C 573.094,100.027 572.427,99.0269 572.5,97.5 Z"/></g>
<g><path style="opacity:1" fill="#0766ee" d="M 110.5,101.5 C 113.973,108.447 117.473,115.447 121,122.5C 121.5,132.161 121.666,141.828 121.5,151.5C 117.5,151.5 113.5,151.5 109.5,151.5C 109.17,134.658 109.503,117.992 110.5,101.5 Z"/></g>
<g><path style="opacity:1" fill="#2f383c" d="M 101.5,96.5 C 102.152,97.4486 102.486,98.6153 102.5,100C 102.392,101.681 101.725,102.848 100.5,103.5C 96.2984,103.817 92.2984,103.483 88.5,102.5C 92.8333,102.5 97.1667,102.5 101.5,102.5C 101.5,100.5 101.5,98.5 101.5,96.5 Z"/></g>
<g><path style="opacity:1" fill="#0766ee" d="M 343.5,102.5 C 347.833,102.5 352.167,102.5 356.5,102.5C 356.5,118.833 356.5,135.167 356.5,151.5C 352.167,151.5 347.833,151.5 343.5,151.5C 343.5,135.167 343.5,118.833 343.5,102.5 Z"/></g>
<g><path style="opacity:1" fill="#434343" d="M 448.5,102.5 C 449.043,102.56 449.376,102.893 449.5,103.5C 444.348,104.814 439.348,104.814 434.5,103.5C 439.363,103.819 444.03,103.486 448.5,102.5 Z"/></g>
<g><path style="opacity:1" fill="#828384" d="M 171.5,106.5 C 171.56,105.957 171.893,105.624 172.5,105.5C 173.499,120.819 173.833,136.152 173.5,151.5C 172.549,150.081 172.216,148.415 172.5,146.5C 172.829,132.99 172.496,119.656 171.5,106.5 Z"/></g>
<g><path style="opacity:1" fill="#f7f7f7" d="M 171.5,106.5 C 172.496,119.656 172.829,132.99 172.5,146.5C 162.5,146.5 152.5,146.5 142.5,146.5C 135.833,146.5 129.167,146.5 122.5,146.5C 122.5,138.833 122.5,131.167 122.5,123.5C 125.833,123.5 129.167,123.5 132.5,123.5C 135.909,129.315 139.075,135.315 142,141.5C 145.333,142.833 148.667,142.833 152,141.5C 155.274,135.273 158.774,129.273 162.5,123.5C 163.5,123.5 164.5,123.5 165.5,123.5C 165.5,121.5 165.5,119.5 165.5,117.5C 167.246,113.673 169.246,110.007 171.5,106.5 Z"/></g>
<g><path style="opacity:1" fill="#686868" d="M 487.5,114.5 C 478.014,115.494 468.348,115.827 458.5,115.5C 458.5,127.5 458.5,139.5 458.5,151.5C 457.505,139.345 457.171,127.011 457.5,114.5C 467.5,114.5 477.5,114.5 487.5,114.5 Z"/></g>
<g><path style="opacity:1" fill="#3f3f3f" d="M 531.5,116.5 C 527.167,116.5 522.833,116.5 518.5,116.5C 518.5,117.833 518.5,119.167 518.5,120.5C 517.549,119.081 517.216,117.415 517.5,115.5C 522.363,115.181 527.03,115.514 531.5,116.5 Z"/></g>
<g><path style="opacity:1" fill="#76a2b4" d="M 165.5,117.5 C 165.5,119.5 165.5,121.5 165.5,123.5C 164.5,123.5 163.5,123.5 162.5,123.5C 162.992,121.181 163.992,119.181 165.5,117.5 Z"/></g>
<g><path style="opacity:1" fill="#ebecec" d="M 77.5,121.5 C 83.8251,122.324 87.8251,125.824 89.5,132C 88.5683,137.1 85.5683,139.933 80.5,140.5C 79.5,140.5 78.5,140.5 77.5,140.5C 77.5,134.167 77.5,127.833 77.5,121.5 Z"/></g>
<g><path style="opacity:1" fill="#efefef" d="M 100.5,123.5 C 103.167,123.5 105.833,123.5 108.5,123.5C 108.5,131.167 108.5,138.833 108.5,146.5C 104.298,146.817 100.298,146.483 96.5,145.5C 102.081,138.928 103.415,131.595 100.5,123.5 Z"/></g>
<g><path style="opacity:1" fill="#3d4448" d="M 110.5,101.5 C 109.503,117.992 109.17,134.658 109.5,151.5C 108.549,150.081 108.216,148.415 108.5,146.5C 108.5,138.833 108.5,131.167 108.5,123.5C 108.334,115.16 108.5,106.827 109,98.5C 109.513,99.5266 110.013,100.527 110.5,101.5 Z"/></g>
<g><path style="opacity:1" fill="#676767" d="M 296.5,126.5 C 291.167,126.5 285.833,126.5 280.5,126.5C 280.826,135.017 280.493,143.35 279.5,151.5C 279.5,142.833 279.5,134.167 279.5,125.5C 285.358,125.178 291.025,125.511 296.5,126.5 Z"/></g>
<g><path style="opacity:1" fill="#476571" d="M 58.5,131.5 C 57.596,130.791 57.2627,129.791 57.5,128.5C 53.1667,128.5 48.8333,128.5 44.5,128.5C 44.5,129.5 44.5,130.5 44.5,131.5C 43.5655,130.432 43.2322,129.099 43.5,127.5C 48.5,127.5 53.5,127.5 58.5,127.5C 58.5,128.833 58.5,130.167 58.5,131.5 Z"/></g>
<g><path style="opacity:1" fill="#797979" d="M 296.5,114.5 C 286.681,115.494 276.681,115.827 266.5,115.5C 266.5,127.5 266.5,139.5 266.5,151.5C 265.505,139.345 265.171,127.011 265.5,114.5C 275.833,114.5 286.167,114.5 296.5,114.5 Z"/></g>
<g><path style="opacity:1" fill="#78bee4" d="M 50.5,145.5 C 58.5871,150.913 67.5871,153.246 77.5,152.5C 77.5,172.167 77.5,191.833 77.5,211.5C 55.8333,211.5 34.1667,211.5 12.5,211.5C 12.5,189.833 12.5,168.167 12.5,146.5C 25.3443,146.829 38.011,146.495 50.5,145.5 Z"/></g>
<g><path style="opacity:1" fill="#92cfe7" d="M 96.5,145.5 C 100.298,146.483 104.298,146.817 108.5,146.5C 108.216,148.415 108.549,150.081 109.5,151.5C 113.5,151.5 117.5,151.5 121.5,151.5C 122.451,150.081 122.784,148.415 122.5,146.5C 129.167,146.5 135.833,146.5 142.5,146.5C 142.5,168.167 142.5,189.833 142.5,211.5C 120.833,211.5 99.1667,211.5 77.5,211.5C 77.5,191.833 77.5,172.167 77.5,152.5C 84.5294,151.834 90.8627,149.501 96.5,145.5 Z"/></g>
<g><path style="opacity:1" fill="#cae8f7" d="M 186.5,79.5 C 187.497,101.66 187.831,123.994 187.5,146.5C 189.167,146.5 190.833,146.5 192.5,146.5C 191.933,148.03 191.267,149.53 190.5,151C 195.5,151.667 200.5,151.667 205.5,151C 206.085,149.698 206.751,148.531 207.5,147.5C 207.5,168.833 207.5,190.167 207.5,211.5C 185.833,211.5 164.167,211.5 142.5,211.5C 142.5,189.833 142.5,168.167 142.5,146.5C 152.5,146.5 162.5,146.5 172.5,146.5C 172.216,148.415 172.549,150.081 173.5,151.5C 177.833,151.5 182.167,151.5 186.5,151.5C 186.5,127.5 186.5,103.5 186.5,79.5 Z"/></g>
</svg>
